<svg width="315" height="181" viewBox="0 0 315 181" fill="none" xmlns="http://www.w3.org/2000/svg">
<g filter="url(#filter0_d_846_18231)">
<path d="M20.7596 76.3V63.88L49.1996 23.2H66.3896V62.98H73.7696V76.3H66.3896V88H50.9996V76.3H20.7596ZM52.0796 40.12L36.9596 62.98H52.0796V40.12ZM86.3478 24.82H102.098L92.0178 48.94H81.6678L86.3478 24.82ZM155.869 35.71H127.789V48.13C128.989 46.81 130.669 45.73 132.829 44.89C134.989 44.05 137.329 43.63 139.849 43.63C144.349 43.63 148.069 44.65 151.009 46.69C154.009 48.73 156.199 51.37 157.579 54.61C158.959 57.85 159.649 61.36 159.649 65.14C159.649 72.16 157.669 77.74 153.709 81.88C149.749 85.96 144.169 88 136.969 88C132.169 88 127.999 87.19 124.459 85.57C120.919 83.89 118.189 81.58 116.269 78.64C114.349 75.7 113.299 72.31 113.119 68.47H128.149C128.509 70.33 129.379 71.89 130.759 73.15C132.139 74.35 134.029 74.95 136.429 74.95C139.249 74.95 141.349 74.05 142.729 72.25C144.109 70.45 144.799 68.05 144.799 65.05C144.799 62.11 144.079 59.86 142.639 58.3C141.199 56.74 139.099 55.96 136.339 55.96C134.299 55.96 132.619 56.47 131.299 57.49C129.979 58.45 129.109 59.74 128.689 61.36H113.839V22.21H155.869V35.71ZM200.634 40.03C200.154 37.81 199.314 36.16 198.114 35.08C196.914 33.94 195.204 33.37 192.984 33.37C189.564 33.37 187.104 34.87 185.604 37.87C184.104 40.81 183.324 45.49 183.264 51.91C184.584 49.81 186.474 48.16 188.934 46.96C191.454 45.76 194.214 45.16 197.214 45.16C203.094 45.16 207.804 47.02 211.344 50.74C214.944 54.46 216.744 59.65 216.744 66.31C216.744 70.69 215.844 74.53 214.044 77.83C212.304 81.13 209.724 83.71 206.304 85.57C202.944 87.43 198.954 88.36 194.334 88.36C185.094 88.36 178.674 85.48 175.074 79.72C171.474 73.9 169.674 65.56 169.674 54.7C169.674 43.3 171.564 34.84 175.344 29.32C179.184 23.74 185.304 20.95 193.704 20.95C198.204 20.95 201.984 21.85 205.044 23.65C208.164 25.39 210.504 27.7 212.064 30.58C213.684 33.46 214.644 36.61 214.944 40.03H200.634ZM193.524 57.31C190.944 57.31 188.784 58.09 187.044 59.65C185.364 61.15 184.524 63.31 184.524 66.13C184.524 69.01 185.304 71.26 186.864 72.88C188.484 74.5 190.764 75.31 193.704 75.31C196.344 75.31 198.414 74.53 199.914 72.97C201.474 71.35 202.254 69.16 202.254 66.4C202.254 63.58 201.504 61.36 200.004 59.74C198.504 58.12 196.344 57.31 193.524 57.31ZM230.488 24.82H246.238L236.158 48.94H225.808L230.488 24.82ZM258.789 24.82H274.539L264.459 48.94H254.109L258.789 24.82Z" fill="white"/>
</g>
<g filter="url(#filter1_d_846_18231)">
<path d="M108.695 123.108C108.695 126.348 107.633 128.958 105.509 130.938C103.385 132.918 100.199 133.908 95.9513 133.908H88.3373V150H84.5573V112.254H95.9513C100.163 112.254 103.331 113.244 105.455 115.224C107.615 117.204 108.695 119.832 108.695 123.108ZM95.9513 130.668C101.855 130.668 104.807 128.148 104.807 123.108C104.807 120.588 104.105 118.68 102.701 117.384C101.297 116.088 99.0473 115.44 95.9513 115.44H88.3373V130.668H95.9513ZM136.908 141.036H119.736L116.442 150H112.446L126.216 112.74H130.482L144.198 150H140.202L136.908 141.036ZM135.774 137.904L128.322 117.492L120.87 137.904H135.774ZM148.536 131.1C148.536 127.392 149.346 124.08 150.966 121.164C152.586 118.212 154.8 115.926 157.608 114.306C160.416 112.65 163.548 111.822 167.004 111.822C171.216 111.822 174.816 112.83 177.804 114.846C180.828 116.826 183.024 119.634 184.392 123.27H179.964C178.884 120.714 177.228 118.716 174.996 117.276C172.8 115.836 170.136 115.116 167.004 115.116C164.232 115.116 161.73 115.764 159.498 117.06C157.302 118.356 155.574 120.228 154.314 122.676C153.054 125.088 152.424 127.896 152.424 131.1C152.424 134.304 153.054 137.112 154.314 139.524C155.574 141.936 157.302 143.79 159.498 145.086C161.73 146.382 164.232 147.03 167.004 147.03C170.136 147.03 172.8 146.328 174.996 144.924C177.228 143.484 178.884 141.504 179.964 138.984H184.392C183.024 142.584 180.828 145.374 177.804 147.354C174.78 149.334 171.18 150.324 167.004 150.324C163.548 150.324 160.416 149.514 157.608 147.894C154.8 146.238 152.586 143.952 150.966 141.036C149.346 138.12 148.536 134.808 148.536 131.1ZM195.704 115.332V129.426H210.014V132.558H195.704V146.868H211.634V150H191.924V112.2H211.634V115.332H195.704Z" fill="white"/>
</g>
<defs>
<filter id="filter0_d_846_18231" x="0.759766" y="0.950195" width="313.779" height="127.41" filterUnits="userSpaceOnUse" color-interpolation-filters="sRGB">
<feFlood flood-opacity="0" result="BackgroundImageFix"/>
<feColorMatrix in="SourceAlpha" type="matrix" values="0 0 0 0 0 0 0 0 0 0 0 0 0 0 0 0 0 0 127 0" result="hardAlpha"/>
<feOffset dx="10" dy="10"/>
<feGaussianBlur stdDeviation="15"/>
<feComposite in2="hardAlpha" operator="out"/>
<feColorMatrix type="matrix" values="0 0 0 0 0 0 0 0 0 0 0 0 0 0 0 0 0 0 0.1 0"/>
<feBlend mode="normal" in2="BackgroundImageFix" result="effect1_dropShadow_846_18231"/>
<feBlend mode="normal" in="SourceGraphic" in2="effect1_dropShadow_846_18231" result="shape"/>
</filter>
<filter id="filter1_d_846_18231" x="74.5576" y="101.822" width="167.077" height="78.5024" filterUnits="userSpaceOnUse" color-interpolation-filters="sRGB">
<feFlood flood-opacity="0" result="BackgroundImageFix"/>
<feColorMatrix in="SourceAlpha" type="matrix" values="0 0 0 0 0 0 0 0 0 0 0 0 0 0 0 0 0 0 127 0" result="hardAlpha"/>
<feOffset dx="10" dy="10"/>
<feGaussianBlur stdDeviation="10"/>
<feComposite in2="hardAlpha" operator="out"/>
<feColorMatrix type="matrix" values="0 0 0 0 0 0 0 0 0 0 0 0 0 0 0 0 0 0 0.1 0"/>
<feBlend mode="normal" in2="BackgroundImageFix" result="effect1_dropShadow_846_18231"/>
<feBlend mode="normal" in="SourceGraphic" in2="effect1_dropShadow_846_18231" result="shape"/>
</filter>
</defs>
</svg>
