<svg width="24" height="24" viewBox="0 0 24 24" fill="none" xmlns="http://www.w3.org/2000/svg">
<path d="M14.2969 11.9995C14.2969 13.2681 13.2686 14.2964 12 14.2964C10.7314 14.2964 9.70312 13.2681 9.70312 11.9995C9.70312 10.731 10.7314 9.70264 12 9.70264C13.2686 9.70264 14.2969 10.731 14.2969 11.9995Z" fill="white"/>
<path d="M17.3716 7.93565C17.2612 7.63646 17.0851 7.36565 16.8562 7.14336C16.6339 6.91448 16.3633 6.73833 16.0639 6.62792C15.8211 6.53362 15.4564 6.42137 14.7845 6.39079C14.0578 6.35765 13.8399 6.35051 12.0001 6.35051C10.16 6.35051 9.94213 6.35747 9.21557 6.39061C8.54376 6.42137 8.17883 6.53362 7.93621 6.62792C7.63684 6.73833 7.36602 6.91448 7.14392 7.14336C6.91503 7.36565 6.73889 7.63628 6.62829 7.93565C6.53399 8.17845 6.42175 8.54338 6.39117 9.2152C6.35803 9.94176 6.35089 10.1597 6.35089 11.9997C6.35089 13.8395 6.35803 14.0574 6.39117 14.7842C6.42175 15.456 6.53399 15.8207 6.62829 16.0635C6.73889 16.3629 6.91485 16.6335 7.14373 16.8558C7.36602 17.0847 7.63665 17.2609 7.93603 17.3713C8.17883 17.4657 8.54376 17.578 9.21557 17.6086C9.94213 17.6417 10.1598 17.6487 11.9999 17.6487C13.8401 17.6487 14.058 17.6417 14.7844 17.6086C15.4562 17.578 15.8211 17.4657 16.0639 17.3713C16.6649 17.1395 17.1398 16.6645 17.3716 16.0635C17.4659 15.8207 17.5782 15.456 17.6089 14.7842C17.6421 14.0574 17.649 13.8395 17.649 11.9997C17.649 10.1597 17.6421 9.94176 17.6089 9.2152C17.5784 8.54338 17.4661 8.17845 17.3716 7.93565ZM12.0001 15.5378C10.0458 15.5378 8.46154 13.9538 8.46154 11.9995C8.46154 10.0452 10.0458 8.46117 12.0001 8.46117C13.9542 8.46117 15.5384 10.0452 15.5384 11.9995C15.5384 13.9538 13.9542 15.5378 12.0001 15.5378ZM15.6783 9.14818C15.2216 9.14818 14.8514 8.77794 14.8514 8.32127C14.8514 7.86461 15.2216 7.49437 15.6783 7.49437C16.1349 7.49437 16.5052 7.86461 16.5052 8.32127C16.505 8.77794 16.1349 9.14818 15.6783 9.14818Z" fill="white"/>
<path d="M12 -0.000488281C5.3736 -0.000488281 0 5.37311 0 11.9995C0 18.6259 5.3736 23.9995 12 23.9995C18.6264 23.9995 24 18.6259 24 11.9995C24 5.37311 18.6264 -0.000488281 12 -0.000488281ZM18.8491 14.8404C18.8157 15.5739 18.6991 16.0747 18.5288 16.5131C18.1708 17.4387 17.4391 18.1703 16.5135 18.5283C16.0754 18.6986 15.5744 18.8151 14.8411 18.8486C14.1063 18.8821 13.8715 18.8901 12.0002 18.8901C10.1287 18.8901 9.8941 18.8821 9.15912 18.8486C8.42578 18.8151 7.9248 18.6986 7.48663 18.5283C7.02667 18.3553 6.61029 18.0841 6.26605 17.7335C5.91559 17.3894 5.64441 16.9728 5.47137 16.5131C5.30109 16.0749 5.18445 15.5739 5.15112 14.8406C5.11725 14.1056 5.10938 13.8708 5.10938 11.9995C5.10938 10.1282 5.11725 9.89343 5.15094 9.15863C5.18427 8.42511 5.30072 7.92432 5.47101 7.48596C5.64404 7.02618 5.91541 6.60962 6.26605 6.26556C6.61011 5.91492 7.02667 5.64374 7.48645 5.4707C7.9248 5.30042 8.4256 5.18396 9.15912 5.15045C9.89392 5.11694 10.1287 5.10889 12 5.10889C13.8713 5.10889 14.1061 5.11694 14.8409 5.15063C15.5744 5.18396 16.0752 5.30042 16.5135 5.47052C16.9733 5.64355 17.3899 5.91492 17.7341 6.26556C18.0846 6.6098 18.356 7.02618 18.5288 7.48596C18.6993 7.92432 18.8157 8.42511 18.8492 9.15863C18.8828 9.89343 18.8906 10.1282 18.8906 11.9995C18.8906 13.8708 18.8828 14.1056 18.8491 14.8404Z" fill="white"/>
</svg>
