<svg width="24" height="24" viewBox="0 0 24 24" fill="none" xmlns="http://www.w3.org/2000/svg">
<g clip-path="url(#clip0_13_11)">
<path d="M12 -0.000488281C5.3736 -0.000488281 0 5.37311 0 11.9995C0 18.6259 5.3736 23.9995 12 23.9995C18.6264 23.9995 24 18.6259 24 11.9995C24 5.37311 18.6264 -0.000488281 12 -0.000488281ZM17.4791 9.35583C17.4844 9.47394 17.4869 9.59259 17.4869 9.71179C17.4869 13.3514 14.7166 17.5483 9.65021 17.5485H9.65039H9.65021C8.09473 17.5485 6.64728 17.0926 5.42834 16.3113C5.64386 16.3367 5.86322 16.3494 6.08533 16.3494C7.37585 16.3494 8.56348 15.9092 9.50629 15.1703C8.30054 15.148 7.28394 14.3517 6.93311 13.2573C7.10101 13.2895 7.27368 13.3071 7.45074 13.3071C7.70215 13.3071 7.94568 13.2732 8.17712 13.21C6.91681 12.9577 5.96741 11.8439 5.96741 10.5101C5.96741 10.4977 5.96741 10.4865 5.96777 10.475C6.33893 10.6813 6.76337 10.8055 7.21527 10.8194C6.47571 10.3259 5.98956 9.48236 5.98956 8.52673C5.98956 8.02209 6.12598 7.54932 6.36255 7.14227C7.72083 8.8089 9.75073 9.90497 12.0399 10.0201C11.9927 9.81836 11.9683 9.60815 11.9683 9.39209C11.9683 7.87158 13.2019 6.638 14.723 6.638C15.5153 6.638 16.2308 6.9729 16.7335 7.5083C17.361 7.38452 17.9502 7.15527 18.4825 6.83978C18.2765 7.48267 17.84 8.02209 17.2712 8.36322C17.8284 8.29657 18.3594 8.1488 18.8529 7.92944C18.4843 8.48187 18.0168 8.9671 17.4791 9.35583V9.35583Z" fill="white"/>
</g>
<defs>
<clipPath id="clip0_13_11">
<rect width="24" height="24" fill="white" transform="translate(0 -0.000488281)"/>
</clipPath>
</defs>
</svg>
