<svg width="24" height="24" viewBox="0 0 24 24" fill="none" xmlns="http://www.w3.org/2000/svg">
<g clip-path="url(#clip0_13_27)">
<path d="M12 -0.000488281C5.3736 -0.000488281 0 5.37311 0 11.9995C0 18.6259 5.3736 23.9995 12 23.9995C18.6264 23.9995 24 18.6259 24 11.9995C24 5.37311 18.6264 -0.000488281 12 -0.000488281ZM8.51294 18.1401H5.59039V9.3476H8.51294V18.1401ZM7.05176 8.14697H7.03271C6.052 8.14697 5.41772 7.47186 5.41772 6.62811C5.41772 5.76532 6.07141 5.10889 7.07117 5.10889C8.07092 5.10889 8.68616 5.76532 8.7052 6.62811C8.7052 7.47186 8.07092 8.14697 7.05176 8.14697ZM19.051 18.1401H16.1288V13.4363C16.1288 12.2542 15.7057 11.448 14.6483 11.448C13.8409 11.448 13.3601 11.9918 13.1488 12.5168C13.0715 12.7047 13.0527 12.9672 13.0527 13.23V18.1401H10.1303C10.1303 18.1401 10.1686 10.1725 10.1303 9.3476H13.0527V10.5925C13.441 9.99341 14.1359 9.14124 15.6865 9.14124C17.6093 9.14124 19.051 10.3979 19.051 13.0985V18.1401Z" fill="white"/>
</g>
<defs>
<clipPath id="clip0_13_27">
<rect width="24" height="24" fill="white" transform="translate(0 -0.000488281)"/>
</clipPath>
</defs>
</svg>
