<svg width="196" height="46" viewBox="0 0 196 46" fill="none" xmlns="http://www.w3.org/2000/svg">
<g clip-path="url(#clip0_2_2444)">
<path d="M98.2513 36.2375V33.7793C96.6745 35.6311 93.7384 36.8792 91.3052 36.8792C85.3242 36.8792 81.6377 31.8544 81.6377 26.2205C81.6377 20.5866 85.7157 15.7729 91.5906 15.7729C93.7739 15.8019 95.8678 16.6408 97.4629 18.1256C97.7285 18.3713 97.9681 18.6434 98.1779 18.9378H98.2513V16.4417H102.617V36.2294L98.2513 36.2375ZM92.3056 20.1236C88.7714 20.1236 86.3953 23.0475 86.3953 26.4344C86.3953 29.7481 88.9019 32.5312 92.3056 32.5312C95.8399 32.5312 98.1045 29.6777 98.1045 26.3044C98.1045 22.9311 95.8045 20.1236 92.3056 20.1236Z" fill="white"/>
<path d="M105.807 14.2024V9.85449H110.567V14.2024H105.807ZM105.807 36.2373V16.4495H110.567V36.2373H105.807Z" fill="white"/>
<path d="M126.593 36.2375V26.4696C126.593 23.7243 126.128 20.1236 122.583 20.1236C121.94 20.1408 121.31 20.3077 120.744 20.6109C120.177 20.9142 119.69 21.3453 119.321 21.8698C118.459 23.1179 118.459 25.365 118.459 26.8269V36.2375H113.704V16.4498H118.097V18.1608C119.672 16.6285 121.248 15.7729 123.535 15.7729C124.669 15.7895 125.787 16.0423 126.817 16.5151C127.847 16.9879 128.766 17.6702 129.516 18.5182C131.054 20.3727 131.343 22.9392 131.343 25.2567V36.2375H126.593Z" fill="white"/>
<path d="M159.594 36.2374V25.2565C159.594 22.7252 158.915 20.1126 155.834 20.1126C155.172 20.1158 154.521 20.2879 153.944 20.6126C153.368 20.9372 152.884 21.4036 152.54 21.9671C151.86 23.0717 151.825 24.7475 151.825 25.9956V36.2266H147.064V25.2565C147.064 22.6548 146.096 20.1126 143.09 20.1126C139.509 20.1126 139.283 23.6782 139.283 26.3394V36.2157H134.531V16.4496H138.9V18.12H138.971C140.058 16.3738 142.233 15.7674 144.163 15.7674C145.308 15.7499 146.438 16.0268 147.444 16.5712C148.45 17.1157 149.297 17.9093 149.905 18.8754C151.479 16.6283 153.665 15.7728 156.313 15.7728C158.855 15.7728 161.326 16.7366 162.865 18.8402C164.047 20.4781 164.368 22.7252 164.368 24.6853V36.2374H159.594Z" fill="white"/>
<path d="M187.151 28.4648H171.709C171.826 28.9787 172.045 29.4639 172.354 29.8916C172.873 30.6994 173.588 31.3644 174.432 31.8256C175.277 32.2868 176.224 32.5294 177.188 32.5312C179.12 32.5312 180.803 31.7461 181.768 29.9999H186.782C185.493 34.0284 181.412 36.8792 177.188 36.8792C171.245 36.8792 166.696 32.2767 166.696 26.3965C166.696 20.5162 171.136 15.7729 177.152 15.7729C182.951 15.7729 187.426 20.3375 187.426 26.077C187.423 26.8806 187.331 27.6814 187.151 28.4648ZM177.188 20.1236C174.287 20.1236 172.245 21.8346 171.565 24.6502H182.557C182.092 21.7994 180.083 20.1236 177.188 20.1236Z" fill="white"/>
<path d="M69.0989 16.4522H69.0907V9.85449H64.3358V16.4522H60.5352V20.6594H64.3358V23.1609V32.0328V36.24H69.0989V32.0328V20.6594V16.4522Z" fill="white"/>
<path d="M76.5943 18.1472H76.5209V16.3928H72.1357V36.2591H76.9178V25.0914C76.9178 22.1919 78.1385 20.4376 81.2677 20.3293V15.7268C78.8943 15.7133 77.9237 16.225 76.5943 18.1472Z" fill="white"/>
<path d="M189.1 10.6261V13.9804H188.222V10.6261H187.423V9.85449H189.897V10.6261H189.1ZM194.13 13.9804V11.1378H194.111L193.094 13.9804H192.365L191.349 11.1378H191.33V13.9804H190.451V9.85449H191.629L192.738 12.8461L193.839 9.85449H195.008V13.9804H194.13Z" fill="white"/>
<path d="M23.1653 -0.000396261C20.1323 -0.0089404 17.1274 0.57759 14.3221 1.7257C11.5168 2.8738 8.96604 4.56099 6.81561 6.6909C4.66517 8.82081 2.95714 11.3517 1.78905 14.1391C0.620973 16.9264 0.0157269 19.9156 0.00788344 22.936C-0.00728328 29.0359 2.41021 34.8923 6.72907 39.218C11.0479 43.5438 16.9148 45.9849 23.0402 46.005C29.1652 46.0187 35.0451 43.6103 39.3878 39.309C43.7306 35.0077 46.1809 29.1654 46.2003 23.0659C46.2148 16.966 43.7966 11.1099 39.4772 6.78467C35.1578 2.45943 29.2907 0.0189631 23.1653 -0.000396261ZM21.912 36.1802H17.1544V20.6131H13.3483V16.4086H17.1544V9.81904H21.912V36.1802ZM32.8572 20.6131H29.0511V36.1802H24.3044V9.81904H29.062V16.4086H32.8681L32.8572 20.6131Z" fill="white"/>
</g>
<defs>
<clipPath id="clip0_2_2444">
<rect width="195" height="46" fill="white" transform="translate(0.0078125)"/>
</clipPath>
</defs>
</svg>
