<svg width="195" height="46" viewBox="0 0 195 46" fill="none" xmlns="http://www.w3.org/2000/svg">
<g clip-path="url(#clip0_399_4899)">
<path d="M98.2435 36.2373V33.7791C96.6667 35.6309 93.7306 36.8789 91.2974 36.8789C85.3164 36.8789 81.6299 31.8542 81.6299 26.2202C81.6299 20.5863 85.7078 15.7727 91.5828 15.7727C93.7661 15.8017 95.86 16.6406 97.4551 18.1254C97.7207 18.371 97.9603 18.6432 98.1701 18.9376H98.2435V16.4414H102.61V36.2292L98.2435 36.2373ZM92.2978 20.1234C88.7636 20.1234 86.3875 23.0473 86.3875 26.4341C86.3875 29.7479 88.8941 32.531 92.2978 32.531C95.8321 32.531 98.0967 29.6775 98.0967 26.3042C98.0967 22.9308 95.7967 20.1234 92.2978 20.1234Z" fill="#0F0F1E"/>
<path d="M105.799 14.2027V9.85474H110.559V14.2027H105.799ZM105.799 36.2375V16.4498H110.559V36.2375H105.799Z" fill="#0F0F1E"/>
<path d="M126.585 36.2373V26.4693C126.585 23.7241 126.12 20.1234 122.575 20.1234C121.932 20.1406 121.302 20.3075 120.736 20.6107C120.169 20.9139 119.682 21.3451 119.313 21.8696C118.451 23.1177 118.451 25.3647 118.451 26.8267V36.2373H113.696V16.4495H118.09V18.1606C119.664 16.6282 121.241 15.7727 123.527 15.7727C124.661 15.7893 125.779 16.0421 126.809 16.5149C127.839 16.9877 128.759 17.67 129.508 18.5179C131.047 20.3724 131.335 22.939 131.335 25.2564V36.2373H126.585Z" fill="#0F0F1E"/>
<path d="M159.587 36.2374V25.2565C159.587 22.7252 158.907 20.1126 155.827 20.1126C155.164 20.1158 154.513 20.2879 153.937 20.6126C153.36 20.9372 152.876 21.4036 152.532 21.9671C151.852 23.0717 151.817 24.7475 151.817 25.9956V36.2266H147.056V25.2565C147.056 22.6548 146.089 20.1126 143.082 20.1126C139.501 20.1126 139.276 23.6782 139.276 26.3394V36.2157H134.523V16.4496H138.892V18.12H138.963C140.05 16.3738 142.225 15.7674 144.156 15.7674C145.3 15.7499 146.43 16.0268 147.436 16.5712C148.442 17.1157 149.29 17.9093 149.897 18.8754C151.471 16.6283 153.657 15.7728 156.305 15.7728C158.847 15.7728 161.318 16.7366 162.857 18.8402C164.04 20.4781 164.36 22.7252 164.36 24.6853V36.2374H159.587Z" fill="#0F0F1E"/>
<path d="M187.144 28.4646H171.702C171.818 28.9784 172.037 29.4636 172.346 29.8914C172.865 30.6991 173.58 31.3641 174.425 31.8253C175.269 32.2865 176.217 32.5292 177.18 32.531C179.113 32.531 180.796 31.7459 181.761 29.9996H186.774C185.485 34.0281 181.404 36.8789 177.18 36.8789C171.237 36.8789 166.688 32.2765 166.688 26.3962C166.688 20.5159 171.128 15.7727 177.144 15.7727C182.943 15.7727 187.418 20.3372 187.418 26.0767C187.415 26.8804 187.323 27.6812 187.144 28.4646ZM177.18 20.1234C174.279 20.1234 172.237 21.8344 171.558 24.65H182.549C182.084 21.7992 180.075 20.1234 177.18 20.1234Z" fill="#0F0F1E"/>
<path d="M69.0911 16.4525H69.0829V9.85474H64.328V16.4525H60.5273V20.6596H64.328V23.1612V32.0331V36.2402H69.0911V32.0331V20.6596V16.4525Z" fill="#0F0F1E"/>
<path d="M76.5865 18.1472H76.5131V16.3928H72.1279V36.2591H76.91V25.0914C76.91 22.1919 78.1307 20.4376 81.2598 20.3293V15.7268C78.8865 15.7133 77.9159 16.225 76.5865 18.1472Z" fill="#0F0F1E"/>
<path d="M189.092 10.6263V13.9807H188.214V10.6263H187.415V9.85474H189.889V10.6263H189.092ZM194.122 13.9807V11.138H194.103L193.086 13.9807H192.358L191.341 11.138H191.322V13.9807H190.444V9.85474H191.621L192.73 12.8463L193.831 9.85474H195V13.9807H194.122Z" fill="#0F0F1E"/>
<path d="M23.1575 -0.00015212C20.1245 -0.00869626 17.1196 0.577834 14.3142 1.72594C11.5089 2.87404 8.95823 4.56123 6.80779 6.69114C4.65736 8.82106 2.94932 11.352 1.78124 14.1393C0.613161 16.9267 0.0079144 19.9159 7.0935e-05 22.9362C-0.0150958 29.0362 2.4024 34.8925 6.72126 39.2183C11.0401 43.544 16.907 45.9852 23.0324 46.0053C29.1574 46.0189 35.0373 43.6105 39.38 39.3092C43.7228 35.0079 46.1731 29.1656 46.1925 23.0662C46.2069 16.9662 43.7888 11.1101 39.4694 6.78491C35.15 2.45968 29.2829 0.0192073 23.1575 -0.00015212ZM21.9042 36.1804H17.1465V20.6133H13.3404V16.4089H17.1465V9.81928H21.9042V36.1804ZM32.8494 20.6133H29.0433V36.1804H24.2966V9.81928H29.0542V16.4089H32.8603L32.8494 20.6133Z" fill="#0F0F1E"/>
</g>
<defs>
<clipPath id="clip0_399_4899">
<rect width="195" height="46" fill="white"/>
</clipPath>
</defs>
</svg>
