<svg width="204" height="204" viewBox="0 0 204 204" fill="none" xmlns="http://www.w3.org/2000/svg">
<mask id="mask0_18_34" style="mask-type:alpha" maskUnits="userSpaceOnUse" x="24" y="26" width="155" height="153">
<path d="M117.138 28.6065C135.115 32.3187 151.103 42.5006 162.07 57.2201C173.037 71.9397 178.219 90.1729 176.633 108.46C175.047 126.747 166.804 143.816 153.467 156.428C140.13 169.04 122.627 176.318 104.28 176.88C85.9327 177.442 68.0173 171.25 53.9331 159.478C39.8489 147.706 30.5758 131.174 27.8733 113.018C25.1707 94.8626 29.2267 76.3464 39.2717 60.983C49.3168 45.6195 64.6519 34.4779 82.3675 29.672" stroke="white" stroke-width="4.16269" stroke-linecap="round"/>
</mask>
<g mask="url(#mask0_18_34)">
<path d="M101.987 27.0593C111.827 27.0593 121.57 28.9974 130.661 32.7629C139.752 36.5284 148.012 42.0476 154.969 49.0053C161.927 55.9631 167.446 64.2231 171.212 73.3138C174.977 82.4046 176.915 92.148 176.915 101.988C176.915 111.827 174.977 121.571 171.212 130.662C167.446 139.752 161.927 148.012 154.969 154.97C148.012 161.928 139.752 167.447 130.661 171.212C121.57 174.978 111.827 176.916 101.987 176.916C92.1473 176.916 82.404 174.978 73.3132 171.212C64.2225 167.447 55.9625 161.928 49.0047 154.97C42.047 148.012 36.5278 139.752 32.7623 130.661C28.9968 121.571 27.0588 111.827 27.0588 101.988C27.0588 92.1479 28.9969 82.4045 32.7624 73.3138C36.5279 64.2231 42.0471 55.963 49.0048 49.0053C55.9625 42.0476 64.2226 36.5284 73.3133 32.7629C82.404 28.9974 92.1474 27.0593 101.987 27.0593L101.987 27.0593Z" stroke="#401EAE" stroke-width="2" stroke-linecap="round"/>
</g>
<path d="M96.3089 73.7579H77.3146V86.0961C78.1444 84.9417 79.371 84.0037 80.9944 83.2821C82.6179 82.5245 84.3676 82.1457 86.2436 82.1457C89.2379 82.1457 91.6731 82.7771 93.5491 84.0397C95.4251 85.2664 96.7599 86.8718 97.5536 88.856C98.3833 90.8041 98.7982 92.8785 98.7982 95.0792C98.7982 97.6767 98.3112 100.004 97.3371 102.06C96.363 104.116 94.8659 105.74 92.8456 106.93C90.8614 108.121 88.3901 108.716 85.4318 108.716C81.6438 108.716 78.5773 107.742 76.2323 105.794C73.8873 103.846 72.4623 101.248 71.9572 98.0014H76.7734C77.2424 100.058 78.2345 101.663 79.7498 102.818C81.265 103.972 83.177 104.549 85.4859 104.549C88.336 104.549 90.4826 103.702 91.9256 102.006C93.3687 100.274 94.0902 98.0014 94.0902 95.1874C94.0902 92.3734 93.3687 90.2089 91.9256 88.6936C90.4826 87.1423 88.354 86.3667 85.5401 86.3667C83.628 86.3667 81.9504 86.8357 80.5074 87.7737C79.1004 88.6756 78.0722 89.9202 77.4228 91.5076H72.7689V69.4287H96.3089V73.7579Z" fill="#A8A8B3"/>
<path d="M105.342 88.6395C105.342 82.4343 106.352 77.6001 108.373 74.1367C110.393 70.6373 113.929 68.8876 118.979 68.8876C123.994 68.8876 127.511 70.6373 129.532 74.1367C131.552 77.6001 132.562 82.4343 132.562 88.6395C132.562 94.9529 131.552 99.8593 129.532 103.359C127.511 106.858 123.994 108.608 118.979 108.608C113.929 108.608 110.393 106.858 108.373 103.359C106.352 99.8593 105.342 94.9529 105.342 88.6395ZM127.692 88.6395C127.692 85.5009 127.475 82.8492 127.042 80.6846C126.646 78.484 125.798 76.7162 124.499 75.3814C123.236 74.0465 121.396 73.3791 118.979 73.3791C116.526 73.3791 114.65 74.0465 113.351 75.3814C112.089 76.7162 111.241 78.484 110.808 80.6846C110.411 82.8492 110.213 85.5009 110.213 88.6395C110.213 91.8864 110.411 94.6102 110.808 96.8109C111.241 99.0115 112.089 100.779 113.351 102.114C114.65 103.449 116.526 104.116 118.979 104.116C121.396 104.116 123.236 103.449 124.499 102.114C125.798 100.779 126.646 99.0115 127.042 96.8109C127.475 94.6102 127.692 91.8864 127.692 88.6395Z" fill="#A8A8B3"/>
<path d="M85.9738 139.608L82.5187 133.676H80.2293V139.608H78.3352V125.101H83.0183C84.1144 125.101 85.0372 125.288 85.7865 125.663C86.5496 126.038 87.1185 126.544 87.4932 127.182C87.8678 127.821 88.0551 128.549 88.0551 129.368C88.0551 130.367 87.7637 131.248 87.181 132.011C86.6121 132.774 85.7518 133.281 84.6001 133.53L88.2424 139.608H85.9738ZM80.2293 132.157H83.0183C84.0451 132.157 84.8152 131.907 85.3286 131.407C85.842 130.894 86.0987 130.214 86.0987 129.368C86.0987 128.507 85.842 127.841 85.3286 127.37C84.829 126.898 84.0589 126.662 83.0183 126.662H80.2293V132.157Z" fill="#A8A8B3"/>
<path d="M101.405 133.468C101.405 133.829 101.384 134.21 101.342 134.613H92.2261C92.2955 135.737 92.6771 136.618 93.3708 137.256C94.0785 137.88 94.9318 138.193 95.9309 138.193C96.7495 138.193 97.4295 138.005 97.9706 137.631C98.5256 137.242 98.9141 136.729 99.1362 136.09H101.176C100.871 137.187 100.26 138.082 99.3443 138.775C98.4285 139.455 97.2907 139.795 95.9309 139.795C94.8486 139.795 93.8773 139.552 93.017 139.067C92.1706 138.581 91.5046 137.894 91.0189 137.006C90.5333 136.104 90.2904 135.064 90.2904 133.884C90.2904 132.705 90.5263 131.671 90.9981 130.783C91.4699 129.895 92.129 129.215 92.9754 128.743C93.8357 128.258 94.8208 128.015 95.9309 128.015C97.0132 128.015 97.9706 128.251 98.8031 128.722C99.6357 129.194 100.274 129.846 100.718 130.679C101.176 131.498 101.405 132.427 101.405 133.468ZM99.4484 133.073C99.4484 132.351 99.2888 131.734 98.9696 131.22C98.6505 130.693 98.2134 130.297 97.6584 130.034C97.1173 129.756 96.5137 129.617 95.8476 129.617C94.8902 129.617 94.0716 129.923 93.3916 130.533C92.7256 131.144 92.344 131.99 92.2469 133.073H99.4484Z" fill="#A8A8B3"/>
<path d="M105.799 130.304C106.174 129.652 106.729 129.111 107.464 128.681C108.213 128.237 109.08 128.015 110.066 128.015C111.079 128.015 111.994 128.258 112.813 128.743C113.646 129.229 114.298 129.916 114.769 130.804C115.241 131.678 115.477 132.698 115.477 133.863C115.477 135.015 115.241 136.042 114.769 136.944C114.298 137.846 113.646 138.546 112.813 139.046C111.994 139.545 111.079 139.795 110.066 139.795C109.094 139.795 108.234 139.58 107.485 139.15C106.749 138.706 106.187 138.158 105.799 137.506V145.019H103.905V128.202H105.799V130.304ZM113.541 133.863C113.541 133.003 113.368 132.254 113.021 131.616C112.674 130.977 112.202 130.492 111.606 130.159C111.023 129.826 110.378 129.659 109.67 129.659C108.976 129.659 108.331 129.833 107.735 130.179C107.152 130.512 106.68 131.005 106.319 131.657C105.972 132.295 105.799 133.038 105.799 133.884C105.799 134.745 105.972 135.501 106.319 136.153C106.68 136.791 107.152 137.284 107.735 137.631C108.331 137.964 108.976 138.13 109.67 138.13C110.378 138.13 111.023 137.964 111.606 137.631C112.202 137.284 112.674 136.791 113.021 136.153C113.368 135.501 113.541 134.738 113.541 133.863Z" fill="#A8A8B3"/>
<path d="M122.008 139.795C121.134 139.795 120.35 139.65 119.656 139.358C118.962 139.053 118.414 138.637 118.012 138.109C117.609 137.568 117.387 136.951 117.346 136.257H119.302C119.358 136.826 119.621 137.291 120.093 137.651C120.579 138.012 121.21 138.193 121.987 138.193C122.709 138.193 123.278 138.033 123.694 137.714C124.11 137.395 124.318 136.992 124.318 136.507C124.318 136.007 124.096 135.639 123.652 135.404C123.208 135.154 122.521 134.911 121.592 134.675C120.745 134.453 120.052 134.231 119.51 134.009C118.983 133.773 118.525 133.433 118.137 132.989C117.762 132.531 117.575 131.935 117.575 131.199C117.575 130.617 117.748 130.082 118.095 129.597C118.442 129.111 118.935 128.729 119.573 128.452C120.211 128.161 120.94 128.015 121.758 128.015C123.021 128.015 124.041 128.334 124.818 128.972C125.595 129.611 126.011 130.485 126.067 131.595H124.173C124.131 130.998 123.888 130.519 123.444 130.159C123.014 129.798 122.431 129.617 121.696 129.617C121.016 129.617 120.475 129.763 120.072 130.055C119.67 130.346 119.469 130.728 119.469 131.199C119.469 131.574 119.587 131.886 119.823 132.136C120.072 132.372 120.378 132.566 120.738 132.719C121.113 132.857 121.626 133.017 122.279 133.197C123.097 133.419 123.763 133.641 124.277 133.863C124.79 134.072 125.227 134.391 125.588 134.821C125.963 135.251 126.157 135.813 126.171 136.507C126.171 137.131 125.997 137.693 125.65 138.193C125.303 138.692 124.811 139.088 124.173 139.379C123.548 139.656 122.827 139.795 122.008 139.795Z" fill="#A8A8B3"/>
<rect x="78.0509" y="10.3815" width="49.9522" height="37.5147" rx="18.7574" fill="#401EAE"/>
<path d="M101.033 23.9028H94.3643V28.2348C94.6557 27.8295 95.0863 27.5001 95.6563 27.2468C96.2263 26.9808 96.8407 26.8478 97.4993 26.8478C98.5507 26.8478 99.4057 27.0695 100.064 27.5128C100.723 27.9435 101.192 28.5071 101.47 29.2038C101.762 29.8878 101.907 30.6161 101.907 31.3888C101.907 32.3008 101.736 33.1178 101.394 33.8398C101.052 34.5618 100.527 35.1318 99.8173 35.5498C99.1207 35.9678 98.253 36.1768 97.2143 36.1768C95.8843 36.1768 94.8077 35.8348 93.9843 35.1508C93.161 34.4668 92.6607 33.5548 92.4833 32.4148H94.1743C94.339 33.1368 94.6873 33.7005 95.2193 34.1058C95.7513 34.5111 96.4227 34.7138 97.2333 34.7138C98.234 34.7138 98.9877 34.4161 99.4943 33.8208C100.001 33.2128 100.254 32.4148 100.254 31.4268C100.254 30.4388 100.001 29.6788 99.4943 29.1468C98.9877 28.6021 98.2403 28.3298 97.2523 28.3298C96.581 28.3298 95.992 28.4945 95.4853 28.8238C94.9913 29.1405 94.6303 29.5775 94.4023 30.1348H92.7683V22.3828H101.033V23.9028ZM104.205 29.1278C104.205 26.9491 104.56 25.2518 105.269 24.0358C105.978 22.8071 107.22 22.1928 108.993 22.1928C110.754 22.1928 111.989 22.8071 112.698 24.0358C113.407 25.2518 113.762 26.9491 113.762 29.1278C113.762 31.3445 113.407 33.0671 112.698 34.2958C111.989 35.5245 110.754 36.1388 108.993 36.1388C107.22 36.1388 105.978 35.5245 105.269 34.2958C104.56 33.0671 104.205 31.3445 104.205 29.1278ZM112.052 29.1278C112.052 28.0258 111.976 27.0948 111.824 26.3348C111.685 25.5621 111.387 24.9415 110.931 24.4728C110.488 24.0041 109.842 23.7698 108.993 23.7698C108.132 23.7698 107.473 24.0041 107.017 24.4728C106.574 24.9415 106.276 25.5621 106.124 26.3348C105.985 27.0948 105.915 28.0258 105.915 29.1278C105.915 30.2678 105.985 31.2241 106.124 31.9968C106.276 32.7695 106.574 33.3901 107.017 33.8588C107.473 34.3275 108.132 34.5618 108.993 34.5618C109.842 34.5618 110.488 34.3275 110.931 33.8588C111.387 33.3901 111.685 32.7695 111.824 31.9968C111.976 31.2241 112.052 30.2678 112.052 29.1278Z" fill="white"/>
</svg>
