<svg width="232" height="50" viewBox="0 0 232 50" fill="none" xmlns="http://www.w3.org/2000/svg">
<g clip-path="url(#clip0_2_4815)">
<rect y="20" width="231.25" height="11.25" rx="5.625" fill="url(#paint0_linear_2_4815)"/>
</g>
<circle cx="177.499" cy="25.0001" r="13.75" fill="white"/>
<path d="M186.25 22.9586C186.249 23.7055 186.125 24.4469 185.882 25.1509L185.515 26.0959C183.419 30.6695 177.5 33.7501 177.5 33.7501C177.5 33.7501 168.75 29.1954 168.75 22.9586C168.747 21.9152 169.036 20.8928 169.582 20.0134C170.129 19.1339 170.909 18.4345 171.831 17.9983C172.753 17.5622 173.778 17.4077 174.783 17.5533C175.788 17.699 176.731 18.6244 177.5 19.3056C178.269 18.6244 179.212 17.699 180.217 17.5533C181.222 17.4077 182.247 17.5622 183.169 17.9983C184.091 18.4345 184.871 19.1339 185.418 20.0134C185.964 20.8928 186.253 21.9152 186.25 22.9586Z" fill="#5A32DC"/>
<line x1="152.499" y1="1.25" x2="152.499" y2="17.5" stroke="#D9D9D9" stroke-width="2.5" stroke-linecap="square" stroke-dasharray="11.36 11.36"/>
<line x1="71.249" y1="1.25" x2="71.249" y2="17.5" stroke="#D9D9D9" stroke-width="2.5" stroke-linecap="square" stroke-dasharray="11.36 11.36"/>
<line x1="152.499" y1="32.5" x2="152.499" y2="48.75" stroke="#D9D9D9" stroke-width="2.5" stroke-linecap="square" stroke-dasharray="11.36 11.36"/>
<line x1="71.249" y1="32.5" x2="71.249" y2="48.75" stroke="#D9D9D9" stroke-width="2.5" stroke-linecap="square" stroke-dasharray="11.36 11.36"/>
<defs>
<linearGradient id="paint0_linear_2_4815" x1="231.25" y1="25.6267" x2="-9.18476e-10" y2="25.6267" gradientUnits="userSpaceOnUse">
<stop stop-color="#FF0C0C"/>
<stop offset="0.373672" stop-color="#F08726" stop-opacity="0.99"/>
<stop offset="0.696602" stop-color="#F6D171" stop-opacity="0.99"/>
<stop offset="1" stop-color="#08DE84"/>
</linearGradient>
<clipPath id="clip0_2_4815">
<rect y="19.9" width="231.25" height="11.36" rx="5.68" fill="white"/>
</clipPath>
</defs>
</svg>
