<svg width="62" height="68" viewBox="0 0 62 68" fill="none" xmlns="http://www.w3.org/2000/svg">
<path d="M50.8261 43.7466C50.8261 43.7466 58.9003 33.6383 54.7814 25.2428C50.9579 18.4196 45.2886 17.9139 45.2886 5.61544V0C40.4068 2.31261 36.2 5.53333 32.9814 9.42247C29.7628 13.3116 27.6152 17.769 26.6985 22.463C22.6114 18.1108 21.227 14.6009 24.8527 7.41278C24.8527 7.41278 0 18.3482 0 43.1851C0 61.1605 18.6001 67.2766 32.9611 67.2766C49.6002 67.2766 61.9999 56.6909 61.9999 43.1851C61.9999 36.6963 59.8326 33.1056 58.9003 30.5803C58.9003 30.5803 57.6491 44.0555 50.8261 43.7466Z" fill="black"/>
</svg>
