<svg width="71" height="57" viewBox="0 0 71 57" fill="none" xmlns="http://www.w3.org/2000/svg">
<path d="M61.7165 30.1516L55.3809 41.2224L47.9272 20.1414L42.9333 30.1516H29.9639V26.837H40.399L48.7471 11.0594L56.2008 32.4718L59.4804 26.837H69.4683C70.4512 24.3672 70.9553 21.7669 70.9591 19.147C70.9709 15.4868 69.7995 11.9007 67.5843 8.81585C65.3692 5.73103 62.2037 3.27756 58.4649 1.74769C54.7262 0.217811 50.5718 -0.323975 46.4966 0.186867C42.4214 0.697709 38.5972 2.23965 35.4796 4.629C32.3619 2.23965 28.5377 0.697709 24.4626 0.186867C20.3874 -0.323975 16.233 0.217811 12.4942 1.74769C8.75549 3.27756 5.59 5.73103 3.37486 8.81585C1.15971 11.9007 -0.011726 15.4868 8.84917e-05 19.147C8.84917e-05 41.0235 35.4796 57 35.4796 57C35.4796 57 59.4804 46.1943 67.9776 30.1516H61.7165Z" fill="black"/>
</svg>
