<svg width="48" height="48" viewBox="0 0 48 48" fill="none" xmlns="http://www.w3.org/2000/svg">
<path d="M7.07108 33H15.9289C16.213 33 16.4854 33.1559 16.6863 33.4334C16.8872 33.7109 17 34.0872 17 34.4797V45H6V34.4797C6 34.0872 6.11285 33.7109 6.31371 33.4334C6.51458 33.1559 6.78701 33 7.07108 33Z" fill="white"/>
<path d="M19.0763 26H27.9237C28.2091 26 28.4829 26.1528 28.6848 26.4248C28.8866 26.6968 29 27.0657 29 27.4504V45H18V27.4504C18 27.0657 18.1134 26.6968 18.3152 26.4248C18.5171 26.1528 18.7909 26 19.0763 26Z" fill="white"/>
<path d="M42 45H30V39.3726C30 39.0085 30.1227 38.6594 30.3412 38.402C30.5597 38.1446 30.8561 38 31.165 38H40.8C41.109 38 41.4053 38.1446 41.6238 38.402C41.8423 38.6594 41.965 39.0085 41.965 39.3726L42 45Z" fill="white"/>
<path d="M23.9939 7L26.1636 11.6029L31 12.3424L27.497 15.9253L28.3212 21L23.9939 18.6029L19.6667 21L20.503 15.9253L17 12.3424L21.8364 11.6029L23.9939 7Z" fill="white"/>
</svg>
