<svg width="30" height="30" viewBox="0 0 30 30" fill="none" xmlns="http://www.w3.org/2000/svg">
<path fill-rule="evenodd" clip-rule="evenodd" d="M15 28C22.1797 28 28 22.1797 28 15C28 7.8203 22.1797 2 15 2C7.8203 2 2 7.8203 2 15C2 22.1797 7.8203 28 15 28ZM15 30C23.2843 30 30 23.2843 30 15C30 6.71573 23.2843 0 15 0C6.71573 0 0 6.71573 0 15C0 23.2843 6.71573 30 15 30Z" fill="#00E6AF"/>
<path fill-rule="evenodd" clip-rule="evenodd" d="M19.5725 10.1802C20.0253 10.4964 20.1361 11.1198 19.8199 11.5726L13.5798 20.5091L9.32415 16.6067C8.9171 16.2334 8.88971 15.6008 9.26297 15.1938C9.63624 14.7867 10.2688 14.7594 10.6759 15.1326L13.2478 17.4911L18.1801 10.4276C18.4963 9.97476 19.1197 9.864 19.5725 10.1802Z" fill="#00E6AF"/>
</svg>
