<svg width="194" height="46" viewBox="0 0 194 46" fill="none" xmlns="http://www.w3.org/2000/svg">
<path d="M97.3023 36.0199V33.572C95.7408 35.4012 92.833 36.6656 90.4368 36.6656C84.5136 36.6656 80.852 31.662 80.852 26.0667C80.852 20.4445 84.8905 15.6831 90.706 15.6831C92.8599 15.6831 94.9331 16.5708 96.5216 18.0235C96.7369 18.2387 97.06 18.5615 97.2216 18.8305H97.3023V16.3556H101.637V36.0199H97.3023ZM91.4061 19.9872C87.906 19.9872 85.5636 22.8925 85.5636 26.255C85.5636 29.5369 88.0406 32.3077 91.4061 32.3077C94.9061 32.3077 97.1408 29.4831 97.1408 26.1205C97.1677 22.758 94.8792 19.9872 91.4061 19.9872Z" fill="#0F0F1E"/>
<path d="M104.787 14.1229V9.79187H109.499V14.1229H104.787V14.1229ZM104.787 36.0199V16.3556H109.499V36.0199H104.787Z" fill="#0F0F1E"/>
<path d="M125.357 36.0199V26.3088C125.357 23.5919 124.899 20.0141 121.372 20.0141C120.134 20.0141 118.841 20.7135 118.141 21.7626C117.28 23.0001 117.28 25.2328 117.28 26.6854V36.0468H112.568V16.3556H116.93V18.0504C118.491 16.517 120.053 15.6831 122.314 15.6831C124.468 15.6831 126.865 16.7591 128.238 18.4001C129.772 20.2293 130.042 22.7849 130.042 25.0983V36.0199H125.357Z" fill="#0F0F1E"/>
<path d="M158.042 36.0199V25.0983C158.042 22.5697 157.369 19.9872 154.327 19.9872C153.007 19.9872 151.742 20.6866 151.069 21.8164C150.396 22.9194 150.369 24.5872 150.369 25.8246V35.993H145.657V25.0983C145.657 22.5159 144.688 19.9872 141.726 19.9872C138.173 19.9872 137.957 23.5381 137.957 26.1743V35.993H133.245V16.3556H137.58V18.0235H137.661C138.738 16.2749 140.892 15.6831 142.803 15.6831C145.146 15.6831 147.192 16.786 148.484 18.7767C150.046 16.5439 152.2 15.6831 154.838 15.6831C157.369 15.6831 159.792 16.6515 161.327 18.7229C162.485 20.3638 162.808 22.5966 162.808 24.5334V36.0199H158.042Z" fill="#5A32DC"/>
<path d="M185.343 28.2726H170.05C170.158 28.8106 170.4 29.2679 170.696 29.6983C171.773 31.3392 173.523 32.3076 175.489 32.3076C177.4 32.3076 179.07 31.5275 180.039 29.779H184.966C183.701 33.7872 179.635 36.6117 175.462 36.6117C169.566 36.6117 165.069 32.0386 165.069 26.2012C165.069 20.31 169.458 15.6562 175.435 15.6562C181.17 15.6562 185.612 20.2024 185.612 25.9053C185.612 26.6854 185.504 27.4924 185.343 28.2726ZM175.462 19.9872C172.581 19.9872 170.562 21.6819 169.889 24.4796H180.766C180.335 21.655 178.343 19.9872 175.462 19.9872Z" fill="#5A32DC"/>
<path d="M68.4402 16.3556H68.4132V9.79187H63.7016V16.3556H59.9592V20.5252H63.7016V23.0001V31.8235V36.0199H68.4402V31.8235V20.5252V16.3556Z" fill="#0F0F1E"/>
<path d="M75.8441 18.0234H75.7634V16.2749H71.4286V36.0199H76.1672V24.9369C76.1672 22.0585 77.3788 20.31 80.475 20.2024V15.6024C78.1327 15.6024 77.1634 16.1135 75.8441 18.0234Z" fill="#0F0F1E"/>
<path d="M187.281 10.5451V13.8807H186.42V10.5451H185.639V9.76495H188.089V10.5451H187.281ZM192.262 13.8807V11.0562H192.235L191.239 13.8807H190.512L189.516 11.0562H189.489V13.8807H188.628V9.79185H189.785L190.889 12.7778L191.993 9.79185H193.151V13.8807H192.262V13.8807Z" fill="#5A32DC"/>
<path fill-rule="evenodd" clip-rule="evenodd" d="M22.8044 45.7041C10.1772 45.6772 -0.0268706 35.4012 5.31567e-05 22.7848C0.0269769 10.1685 10.3118 -0.0268475 22.9391 5.3111e-05C35.5663 0.0269537 45.7973 10.303 45.7434 22.9193C45.7165 35.5357 35.4586 45.731 22.8044 45.7041ZM21.7006 9.76495H16.9889V16.3018H13.2196V20.4714H16.9889V35.9392H21.7006V9.76495ZM28.7815 9.76495H24.0699V35.9392H28.7815V20.4714H32.5239V16.3018H28.7815V9.76495Z" fill="#5A32DC"/>
</svg>
