<?xml version="1.0" standalone="no"?>
<!DOCTYPE svg PUBLIC "-//W3C//DTD SVG 20010904//EN"
 "http://www.w3.org/TR/2001/REC-SVG-20010904/DTD/svg10.dtd">
<svg version="1.0" xmlns="http://www.w3.org/2000/svg"
 width="752.000000pt" height="752.000000pt" viewBox="0 0 752.000000 752.000000"
 preserveAspectRatio="xMidYMid meet">
<metadata>
Created by potrace 1.14, written by Peter Selinger 2001-2017
</metadata>
<g transform="translate(0.000000,752.000000) scale(0.100000,-0.100000)"
fill="#000000" stroke="none">
<path d="M3458 7434 c-2 -2 -40 -6 -84 -9 -43 -3 -92 -8 -109 -10 -62 -8 -112
-15 -170 -25 -33 -5 -76 -12 -95 -15 -19 -3 -43 -8 -52 -11 -9 -3 -26 -7 -38
-9 -13 -2 -60 -14 -105 -25 -45 -11 -91 -22 -101 -24 -11 -3 -57 -17 -104 -32
-47 -15 -89 -29 -95 -30 -5 -1 -37 -12 -70 -25 -33 -13 -62 -24 -65 -24 -3 -1
-14 -5 -25 -10 -536 -213 -986 -521 -1375 -941 -303 -326 -560 -739 -722
-1159 -32 -82 -97 -275 -93 -275 2 0 -2 -15 -10 -34 -8 -18 -17 -45 -20 -60
-3 -14 -7 -37 -10 -51 -3 -13 -9 -35 -14 -47 -5 -13 -9 -26 -9 -31 0 -4 -3
-20 -6 -35 -15 -67 -47 -248 -51 -282 -1 -14 -5 -50 -9 -80 -3 -30 -9 -82 -13
-115 -9 -77 -9 -528 -1 -620 8 -84 36 -300 44 -335 3 -14 7 -36 10 -50 2 -14
7 -36 10 -50 4 -14 8 -34 9 -45 2 -11 10 -46 18 -77 8 -32 13 -58 10 -58 -3 0
-1 -6 5 -12 5 -7 13 -29 17 -48 9 -41 91 -296 105 -325 5 -11 18 -42 29 -70
60 -157 178 -390 284 -560 47 -76 155 -234 167 -245 3 -3 16 -21 29 -40 63
-90 222 -270 356 -403 83 -82 270 -247 281 -247 3 0 14 -8 23 -18 26 -30 265
-195 391 -270 243 -145 606 -306 805 -358 6 -2 25 -7 43 -13 17 -5 32 -7 32
-3 0 4 4 2 8 -4 6 -9 73 -29 127 -38 11 -1 29 -6 40 -9 11 -3 31 -8 45 -11 14
-3 63 -12 109 -21 46 -9 96 -18 110 -20 14 -2 42 -6 61 -9 144 -23 280 -31
525 -30 219 0 348 6 415 18 14 2 48 7 75 10 28 3 64 8 80 11 17 3 44 7 60 10
17 3 41 7 55 10 14 3 39 8 55 11 23 4 258 63 310 78 167 47 578 214 655 266 8
6 26 16 40 22 52 25 276 161 296 179 11 11 24 19 27 19 7 0 185 126 197 140 3
3 22 18 43 33 20 16 48 38 60 50 13 12 52 47 87 77 161 139 381 381 515 566
11 15 25 32 30 38 6 6 26 36 45 66 19 30 38 60 42 65 90 114 292 513 365 718
13 40 29 81 34 92 10 23 76 244 83 277 3 13 16 73 30 133 14 61 27 126 30 145
3 19 8 46 10 60 3 14 7 45 10 70 3 25 8 55 11 68 20 104 27 598 11 767 -5 50
-9 105 -10 122 -1 18 -3 33 -6 33 -3 0 -6 8 -6 18 -2 66 -40 264 -87 442 -30
116 -97 322 -108 334 -5 6 -9 17 -9 26 0 9 -11 40 -25 68 -14 29 -25 54 -25
57 0 12 -122 269 -154 325 -8 14 -34 59 -58 100 -38 66 -154 248 -176 275 -4
6 -21 28 -37 50 -200 272 -449 526 -724 739 -76 59 -280 198 -336 230 -16 9
-57 33 -90 52 -94 54 -241 127 -350 174 -55 23 -113 48 -130 55 -36 16 -259
91 -283 96 -4 1 -17 5 -30 10 -12 5 -33 11 -45 13 -12 3 -58 15 -102 27 -84
22 -102 26 -150 34 -16 3 -52 10 -80 15 -85 16 -114 21 -240 36 -33 3 -73 9
-90 11 -39 6 -562 12 -567 7z m47 -3667 c0 -1155 -2 -2103 -5 -2107 -3 -5
-174 -8 -380 -7 l-375 2 0 1242 0 1243 -30 1 c-16 0 -154 1 -305 2 l-275 2 0
333 c0 219 3 332 10 333 5 1 138 3 295 4 157 1 290 3 295 4 7 1 10 180 9 519
0 284 1 520 3 524 2 4 173 6 381 5 l377 -2 0 -2098z m1145 1780 c-1 -177 -1
-414 0 -527 l0 -206 288 1 c158 1 294 -1 303 -3 14 -3 16 -39 15 -335 l-1
-332 -275 -2 c-151 -1 -288 -2 -305 -2 l-30 -1 0 -1243 0 -1242 -377 -2 -378
-2 -1 27 c-1 35 -1 4117 0 4159 l1 32 380 0 380 0 0 -322z"/>
</g>
</svg>
